<?xml version="1.0" standalone="no"?>
<!DOCTYPE svg PUBLIC "-//W3C//DTD SVG 20010904//EN"
 "http://www.w3.org/TR/2001/REC-SVG-20010904/DTD/svg10.dtd">
<svg version="1.0" xmlns="http://www.w3.org/2000/svg"
 width="458.000000pt" height="568.000000pt" viewBox="0 0 458.000000 568.000000"
 preserveAspectRatio="xMidYMid meet">

<g transform="translate(0.000000,568.000000) scale(0.100000,-0.100000)"
fill="#000000" stroke="none">
<path d="M2422 5555 c-4 -43 -24 -95 -35 -95 -7 0 -18 -9 -25 -20 -7 -11 -19
-20 -27 -20 -12 0 -13 -13 -9 -67 7 -80 26 -103 83 -103 41 0 75 29 105 87 21
41 20 43 -6 40 -21 -2 -24 3 -29 58 -3 33 -6 55 -7 49 -1 -7 -11 -14 -22 -17
-17 -4 -19 1 -23 52 -2 31 -4 47 -5 36z"/>
<path d="M2841 5552 c-5 -10 -21 -61 -35 -113 -29 -105 -51 -155 -73 -163 -22
-9 -30 0 -37 37 -7 37 -32 77 -48 77 -7 0 -9 -41 -6 -122 5 -153 23 -203 89
-241 100 -58 129 -51 193 48 27 41 63 87 80 100 17 14 38 31 46 39 8 7 27 21
43 31 25 16 38 45 20 45 -5 0 -28 -14 -53 -30 -53 -35 -100 -40 -100 -11 0 10
15 41 34 68 19 27 46 73 60 101 40 78 8 67 -49 -17 -52 -77 -69 -96 -84 -87
-13 8 0 59 42 153 20 48 31 85 26 89 -17 10 -34 -13 -78 -106 -24 -49 -47 -90
-52 -90 -13 0 -10 110 5 151 18 51 0 84 -23 41z"/>
<path d="M2021 5514 c0 -11 3 -14 6 -6 3 7 2 16 -1 19 -3 4 -6 -2 -5 -13z"/>
<path d="M2114 5502 c-13 -9 -48 -121 -41 -129 4 -3 14 12 23 33 9 22 21 49
27 61 11 25 6 45 -9 35z"/>
<path d="M2005 5457 c-4 -10 -5 -21 -1 -24 10 -10 18 4 13 24 -4 17 -4 17 -12
0z"/>
<path d="M1931 5444 c0 -11 3 -14 6 -6 3 7 2 16 -1 19 -3 4 -6 -2 -5 -13z"/>
<path d="M2184 5438 c-4 -7 -14 -24 -23 -38 -15 -26 -11 -23 28 23 14 15 19
27 13 27 -6 0 -14 -6 -18 -12z"/>
<path d="M1745 5381 c-23 -52 -41 -58 -60 -21 -18 34 -56 47 -91 31 -30 -14
-31 -47 -1 -71 l22 -19 -27 -49 c-28 -50 -36 -92 -18 -92 5 0 17 11 26 25 20
30 49 32 64 5 7 -14 21 -20 45 -20 39 0 45 11 32 59 -8 31 -5 46 22 105 35 77
37 86 18 86 -8 0 -22 -18 -32 -39z"/>
<path d="M2535 5400 c-3 -5 -1 -10 4 -10 6 0 11 5 11 10 0 6 -2 10 -4 10 -3 0
-8 -4 -11 -10z"/>
<path d="M1930 5323 c-17 -22 -20 -38 -18 -87 l3 -61 40 -10 c22 -6 50 -16 62
-23 25 -14 51 -6 75 23 21 25 23 74 3 81 -12 5 -12 9 1 30 24 36 12 50 -52 62
-81 17 -90 15 -114 -15z"/>
<path d="M1220 5204 c0 -3 11 -28 25 -56 40 -80 31 -99 -25 -52 -43 37 -46 26
-5 -21 51 -58 67 -91 49 -105 -8 -7 -26 -9 -44 -5 -19 4 -30 3 -30 -4 0 -6 5
-11 11 -11 7 0 36 -16 66 -36 70 -46 108 -52 161 -25 54 28 62 56 33 125 -11
28 -21 66 -21 83 0 37 -17 54 -22 21 -4 -29 -37 -31 -52 -3 -6 11 -17 29 -24
40 -12 18 -13 17 -10 -15 5 -56 -23 -50 -67 15 -37 53 -45 62 -45 49z"/>
<path d="M2180 5201 l-25 -7 25 -7 c40 -11 60 -8 60 8 0 16 -19 18 -60 6z"/>
<path d="M830 5111 c0 -5 11 -23 25 -39 14 -17 25 -34 25 -38 0 -5 9 -20 20
-34 11 -14 20 -31 20 -37 0 -30 -40 -8 -109 57 -40 38 -77 67 -82 64 -12 -7
-5 -17 63 -95 32 -36 58 -69 58 -72 0 -21 -75 8 -113 44 -24 22 -56 34 -65 24
-7 -7 77 -84 93 -85 16 0 115 -99 115 -115 0 -15 -35 -30 -50 -20 -13 8 -80
-5 -80 -15 0 -4 15 -10 33 -13 17 -3 63 -17 100 -31 76 -29 144 -33 186 -11
40 20 81 72 81 101 0 21 -23 69 -40 84 -25 22 -52 79 -66 136 -8 38 -19 73
-24 77 -15 16 -21 -13 -10 -53 6 -23 8 -50 5 -60 -13 -40 -43 -22 -102 60 -52
71 -83 98 -83 71z"/>
<path d="M1845 5061 c-3 -5 -1 -12 5 -16 12 -7 30 2 30 16 0 12 -27 12 -35 0z"/>
<path d="M2131 5020 c17 -52 22 -90 14 -90 -4 0 -25 20 -47 45 -52 59 -65 57
-28 -4 45 -73 39 -102 -13 -61 -39 31 -42 24 -8 -19 38 -48 40 -71 6 -71 -14
0 -25 -4 -25 -10 0 -5 7 -10 16 -10 8 0 41 -25 73 -55 32 -30 65 -55 74 -55
51 0 100 45 108 100 5 29 -13 150 -22 150 -5 0 -9 -6 -9 -13 0 -7 -6 -22 -14
-32 -12 -17 -16 -17 -31 -5 -9 7 -29 39 -45 69 -16 31 -35 65 -44 76 -14 19
-15 18 -5 -15z"/>
<path d="M1985 4830 c3 -5 14 -10 23 -10 15 0 15 2 2 10 -20 13 -33 13 -25 0z"/>
<path d="M3906 4626 c-14 -25 -26 -51 -26 -58 0 -24 -68 -88 -93 -88 -50 0
-79 -77 -38 -100 31 -16 37 -12 50 29 6 21 19 42 28 45 22 9 66 -21 59 -41 -3
-8 -6 -17 -6 -19 0 -2 -18 -11 -39 -20 -58 -23 -67 -64 -15 -64 28 0 108 51
117 74 8 20 -21 109 -38 119 -19 10 -19 39 -1 80 43 100 43 113 2 43z"/>
<path d="M2600 4650 c0 -5 5 -10 10 -10 6 0 10 5 10 10 0 6 -4 10 -10 10 -5 0
-10 -4 -10 -10z"/>
<path d="M3730 4570 c0 -5 5 -10 10 -10 6 0 10 5 10 10 0 6 -4 10 -10 10 -5 0
-10 -4 -10 -10z"/>
<path d="M2482 4553 c-12 -10 -24 -30 -27 -44 -9 -35 15 -44 61 -22 38 19 56
13 81 -24 12 -17 11 -23 -6 -44 -16 -20 -22 -22 -42 -13 -63 30 -77 33 -94 21
-24 -18 -10 -43 34 -60 61 -25 107 -31 120 -15 25 29 61 90 61 103 0 33 16 46
81 66 77 23 104 44 42 33 -21 -3 -53 -13 -72 -20 -55 -23 -125 -18 -159 11
-35 30 -53 31 -80 8z"/>
<path d="M3234 4556 c-8 -22 3 -33 18 -18 9 9 9 15 0 24 -9 9 -13 7 -18 -6z"/>
<path d="M3970 4465 c0 -9 6 -12 15 -9 8 4 12 10 9 15 -8 14 -24 10 -24 -6z"/>
<path d="M2818 4428 c17 -8 26 -8 34 0 9 9 4 12 -22 11 -33 0 -34 -1 -12 -11z"/>
<path d="M1422 4380 c0 -14 2 -19 5 -12 2 6 2 18 0 25 -3 6 -5 1 -5 -13z"/>
<path d="M2685 4360 c3 -5 13 -10 21 -10 8 0 12 5 9 10 -3 6 -13 10 -21 10 -8
0 -12 -4 -9 -10z"/>
<path d="M3139 4328 c-7 -13 -21 -77 -31 -143 -41 -262 -40 -269 46 -192 39
35 60 61 61 77 4 60 27 196 36 211 10 20 0 30 -55 53 -48 20 -43 20 -57 -6z"/>
<path d="M381 4303 c4 -40 0 -43 -56 -43 -51 0 -69 -10 -45 -25 18 -11 10 -25
-15 -25 -14 0 -25 -4 -25 -10 0 -5 15 -10 33 -10 39 0 51 -8 37 -25 -8 -9 -2
-14 21 -19 25 -5 29 -9 24 -26 -8 -24 -6 -24 42 -6 21 8 54 17 74 20 42 7 62
39 53 85 -8 38 -39 66 -93 86 -54 19 -53 19 -50 -2z"/>
<path d="M1346 4285 c4 -8 8 -15 10 -15 2 0 4 7 4 15 0 8 -4 15 -10 15 -5 0
-7 -7 -4 -15z"/>
<path d="M1360 4223 c0 -20 -10 -53 -22 -75 -17 -30 -20 -43 -12 -56 14 -22
74 -29 74 -8 0 8 -4 18 -10 21 -16 10 -12 62 6 79 18 19 20 19 45 6 24 -13 24
-39 2 -79 -15 -24 -15 -33 -5 -43 19 -19 45 2 61 51 7 23 10 51 7 64 -7 26
-56 57 -108 67 l-38 7 0 -34z"/>
<path d="M1644 4235 c-8 -20 3 -48 16 -40 13 8 13 55 0 55 -6 0 -13 -7 -16
-15z"/>
<path d="M2056 4195 c-3 -8 -1 -15 3 -15 5 0 11 7 15 15 3 8 1 15 -3 15 -5 0
-11 -7 -15 -15z"/>
<path d="M2975 4200 l-40 -5 0 -50 c0 -44 3 -51 28 -63 60 -29 95 11 69 79
-17 43 -18 44 -57 39z"/>
<path d="M3720 4195 c-7 -8 -8 -15 -2 -15 5 0 15 7 22 15 7 8 8 15 2 15 -5 0
-15 -7 -22 -15z"/>
<path d="M1863 4144 c-42 -10 -58 -129 -18 -129 16 0 21 8 23 37 3 41 21 61
45 52 31 -11 32 -46 2 -71 -33 -29 -27 -53 13 -53 39 0 56 21 47 59 -4 21 -1
40 11 60 10 17 16 33 13 35 -8 8 -111 15 -136 10z"/>
<path d="M1180 4126 c0 -8 5 -18 10 -21 6 -3 10 1 10 9 0 8 -4 18 -10 21 -5 3
-10 -1 -10 -9z"/>
<path d="M3593 4098 c-18 -24 -23 -49 -13 -69 10 -18 13 -18 40 -4 58 30 100
14 100 -37 0 -40 -39 -48 -92 -18 -37 21 -40 21 -58 5 -32 -29 -13 -47 88 -82
24 -8 50 -12 58 -9 17 7 58 71 73 117 13 39 51 62 125 74 25 4 35 9 27 14 -14
9 -96 -4 -123 -19 -33 -18 -92 -11 -128 15 -36 27 -82 33 -97 13z"/>
<path d="M1240 4050 c0 -5 5 -10 10 -10 6 0 10 5 10 10 0 6 -4 10 -10 10 -5 0
-10 -4 -10 -10z"/>
<path d="M4395 4020 c-3 -5 -1 -10 4 -10 6 0 11 5 11 10 0 6 -2 10 -4 10 -3 0
-8 -4 -11 -10z"/>
<path d="M2525 3999 c-8 -24 10 -48 25 -33 10 10 2 54 -10 54 -5 0 -12 -9 -15
-21z"/>
<path d="M350 3999 c0 -18 22 -53 42 -67 11 -8 18 -23 16 -35 -3 -20 -8 -22
-61 -19 -32 1 -85 11 -117 22 -33 11 -68 20 -78 20 -10 0 -23 5 -30 12 -8 8
-15 9 -22 2 -16 -16 5 -29 75 -49 66 -19 85 -30 85 -51 0 -17 -52 -18 -133 -3
-58 10 -97 6 -97 -12 0 -5 10 -9 23 -9 36 0 199 -38 209 -48 17 -17 -2 -32
-41 -32 -64 0 -163 -13 -152 -19 6 -4 59 -8 118 -10 101 -2 122 -8 123 -33 0
-11 -74 -56 -104 -64 -14 -3 -26 -10 -26 -15 0 -11 25 -12 48 0 53 27 124 41
204 41 107 0 135 10 153 55 42 100 1 179 -133 256 -29 16 -60 38 -70 49 -18
22 -32 26 -32 9z"/>
<path d="M1590 3990 c-12 -7 -16 -38 -18 -137 -3 -159 -7 -177 -32 -170 -24 6
-25 0 -3 -43 20 -41 29 -143 38 -433 l7 -228 54 -36 c43 -29 57 -34 67 -24 9
9 12 137 12 531 l0 520 -25 9 c-42 16 -85 20 -100 11z"/>
<path d="M4066 3975 c-19 -20 -21 -51 -3 -62 6 -4 43 -8 82 -8 67 0 70 -1 79
-29 9 -24 7 -31 -13 -47 -34 -28 -59 -23 -102 19 l-38 39 -21 -22 c-36 -38
-19 -109 32 -128 9 -3 39 2 67 11 47 15 53 15 86 -1 20 -9 41 -17 49 -17 7 0
23 -12 37 -26 39 -43 110 -87 120 -77 6 6 -8 24 -38 49 -97 79 -98 81 -99 159
0 49 -6 82 -20 110 l-19 40 -91 3 c-74 2 -95 0 -108 -13z"/>
<path d="M3933 3973 c9 -2 25 -2 35 0 9 3 1 5 -18 5 -19 0 -27 -2 -17 -5z"/>
<path d="M4467 3922 c-9 -2 -15 -8 -12 -13 8 -12 45 -12 45 0 0 13 -12 18 -33
13z"/>
<path d="M3800 3911 c0 -10 24 -21 43 -21 7 0 3 7 -7 15 -22 17 -36 19 -36 6z"/>
<path d="M4355 3909 c-11 -16 1 -21 34 -14 44 9 48 25 7 25 -19 0 -38 -5 -41
-11z"/>
<path d="M1360 3897 c0 -4 5 -13 11 -20 5 -7 19 -27 29 -44 11 -18 25 -33 32
-32 10 0 10 2 1 6 -7 2 -13 10 -13 16 -1 14 -59 86 -60 74z"/>
<path d="M3915 3860 c3 -5 8 -10 11 -10 2 0 4 5 4 10 0 6 -5 10 -11 10 -5 0
-7 -4 -4 -10z"/>
<path d="M2234 3807 c4 -10 9 -36 12 -58 8 -48 -13 -54 -45 -11 -18 24 -18 20
5 -32 33 -77 30 -102 -13 -98 l-31 3 33 -35 c19 -20 38 -36 43 -36 5 0 15 -7
22 -15 20 -24 83 -19 109 9 21 23 23 30 16 95 -6 64 -9 70 -28 68 -14 -1 -25
6 -32 21 -11 24 -20 28 -30 12 -9 -14 -25 -12 -25 3 0 7 -9 31 -21 53 -11 21
-18 31 -15 21z"/>
<path d="M4365 3810 c-7 -12 18 -24 37 -18 8 3 5 9 -9 16 -14 8 -24 9 -28 2z"/>
<path d="M4449 3770 c24 -21 61 -27 61 -11 0 13 -9 17 -50 25 l-35 7 24 -21z"/>
<path d="M2550 3763 c-14 -2 -38 -9 -53 -15 l-28 -11 2 -251 c1 -304 3 -301
-112 -176 -90 99 -106 110 -118 77 -5 -12 -16 -29 -25 -36 -20 -17 -21 -37 -1
-45 8 -3 15 -12 15 -20 0 -8 8 -17 19 -21 10 -3 31 -24 47 -46 15 -22 32 -43
39 -47 18 -12 85 -98 85 -111 0 -6 10 -16 23 -21 12 -5 16 -9 10 -9 -17 -1
-16 -27 1 -54 11 -16 15 -60 17 -163 2 -157 -3 -174 -68 -209 -18 -10 -40 -26
-48 -36 -15 -16 -15 -20 -1 -47 21 -41 34 -47 55 -28 10 9 23 16 30 16 6 0 16
11 22 24 7 14 17 22 25 19 8 -3 14 1 14 8 1 19 66 59 96 59 15 0 24 6 24 15 0
9 25 27 57 43 85 40 93 46 93 60 0 7 10 17 23 22 12 5 35 18 51 29 17 11 34
18 38 15 5 -3 7 0 6 6 -2 6 15 17 37 25 22 8 46 23 54 35 7 11 20 20 27 20 8
0 14 5 14 10 0 6 6 10 14 10 22 0 28 16 20 55 -3 20 -12 35 -20 35 -8 0 -40
-17 -72 -37 -31 -20 -93 -60 -137 -88 -114 -74 -184 -115 -195 -115 -12 0 -11
-34 -12 350 0 179 4 348 9 376 6 31 6 60 0 75 -5 13 -12 64 -15 114 -7 95 -9
97 -62 88z"/>
<path d="M1476 3730 c16 -32 38 -42 27 -12 -7 18 -28 42 -37 42 -2 0 2 -13 10
-30z"/>
<path d="M4132 3633 c24 -51 33 -63 45 -63 17 0 17 20 -3 48 -14 20 -51 33
-42 15z"/>
<path d="M1838 3540 c-26 -20 -40 -62 -31 -88 5 -11 7 -11 15 0 6 10 14 7 32
-15 32 -39 65 -34 80 13 11 31 10 39 -8 65 -34 51 -50 56 -88 25z"/>
<path d="M2026 3534 c12 -17 20 -22 27 -15 8 8 5 15 -9 26 -29 22 -36 18 -18
-11z"/>
<path d="M363 3508 c35 -28 36 -32 20 -43 -10 -7 -66 -16 -125 -20 -109 -7
-141 -25 -45 -25 60 0 91 -14 67 -30 -8 -5 -43 -17 -77 -26 -35 -9 -63 -21
-63 -27 0 -5 7 -6 16 -3 10 4 50 9 90 13 89 7 100 -10 28 -43 -56 -26 -46 -38
14 -17 48 16 83 14 89 -4 2 -6 -10 -27 -26 -46 -41 -46 -40 -58 2 -17 39 38
73 57 141 77 83 24 97 47 80 133 -9 42 -58 73 -151 94 -98 22 -104 20 -60 -16z"/>
<path d="M815 3450 c-3 -5 -16 -10 -27 -10 -20 0 -20 -1 -5 -18 10 -10 14 -22
10 -26 -4 -4 -8 -22 -9 -40 -1 -28 5 -35 48 -59 62 -35 80 -34 112 4 31 37 31
41 5 99 -18 41 -22 43 -33 28 -18 -24 -29 -23 -64 7 -19 15 -33 21 -37 15z"/>
<path d="M3476 3375 c-3 -8 -1 -15 3 -15 5 0 11 7 15 15 3 8 1 15 -3 15 -5 0
-11 -7 -15 -15z"/>
<path d="M3370 3343 c-26 -9 -90 -76 -90 -94 0 -32 33 -32 60 1 17 20 34 30
53 30 23 0 27 -4 27 -30 0 -34 -23 -50 -69 -50 -24 0 -31 -4 -31 -20 0 -24 43
-54 67 -46 10 3 25 19 34 34 18 31 99 75 123 66 8 -3 23 -1 33 5 15 8 10 10
-25 11 -35 0 -48 6 -80 38 -32 34 -74 64 -84 61 -2 0 -10 -3 -18 -6z"/>
<path d="M1876 3224 c-21 -21 -12 -34 23 -34 35 0 55 -22 46 -50 -8 -25 -35
-26 -68 0 -29 23 -47 26 -47 6 0 -18 71 -66 97 -66 23 0 86 67 80 85 -2 5 -12
12 -23 14 -10 2 -34 16 -52 32 -38 34 -36 33 -56 13z"/>
<path d="M988 3109 c-2 -18 -13 -25 -46 -34 l-44 -10 21 -25 c11 -14 33 -39
48 -55 l28 -31 57 25 c64 27 73 40 58 85 -10 31 -35 48 -92 61 -22 6 -27 3
-30 -16z"/>
<path d="M557 3086 c-9 -22 2 -46 20 -46 10 0 12 6 8 23 -10 32 -21 41 -28 23z"/>
<path d="M220 3067 c0 -8 11 -19 25 -25 28 -13 30 -10 15 19 -12 22 -40 26
-40 6z"/>
<path d="M3534 3005 c-11 -9 -42 -15 -79 -15 -76 0 -106 -16 -118 -59 -19 -74
11 -126 97 -172 46 -24 69 -21 46 6 -17 21 -5 45 22 45 13 0 57 -9 98 -20 41
-10 76 -17 78 -15 9 8 -10 25 -29 25 -29 0 -81 29 -76 43 3 8 26 11 72 9 85
-5 81 14 -5 24 -53 6 -92 26 -78 40 3 3 34 9 69 13 l64 8 -66 2 c-39 0 -73 7
-85 15 -19 14 -19 15 5 40 26 28 17 35 -15 11z"/>
<path d="M282 2970 c-12 -12 -22 -25 -22 -30 0 -6 -8 -10 -18 -10 -23 0 -42
-19 -42 -41 0 -30 40 -108 59 -114 19 -6 92 17 128 41 26 17 30 50 8 74 -11
12 -12 24 -6 47 9 29 7 32 -21 42 -44 16 -61 14 -86 -9z"/>
<path d="M583 2982 c-14 -2 -25 -12 -27 -25 -9 -43 -13 -216 -5 -228 12 -21
39 9 40 45 3 94 33 108 79 36 19 -30 39 -50 50 -50 31 0 33 19 8 53 -14 18
-39 57 -56 88 -38 66 -59 86 -89 81z"/>
<path d="M35 2910 c-3 -5 14 -8 45 -7 27 1 50 5 50 10 0 11 -88 9 -95 -3z"/>
<path d="M100 2840 c0 -5 7 -10 15 -10 8 0 15 5 15 10 0 6 -7 10 -15 10 -8 0
-15 -4 -15 -10z"/>
<path d="M35 2831 c-3 -5 -1 -12 4 -15 12 -8 41 3 41 15 0 12 -37 12 -45 0z"/>
<path d="M3067 2813 c-15 -14 -6 -25 16 -19 33 8 62 -26 45 -54 -15 -24 -31
-25 -48 -5 -7 8 -19 15 -26 15 -8 0 -14 -7 -14 -15 0 -8 5 -15 11 -15 6 0 17
-7 25 -15 22 -22 42 -19 69 11 30 32 33 64 7 64 -11 0 -27 9 -37 20 -18 20
-36 25 -48 13z"/>
<path d="M115 2771 c-6 -11 9 -23 19 -14 9 9 7 23 -3 23 -6 0 -12 -4 -16 -9z"/>
<path d="M1493 2723 c13 -12 -15 -33 -44 -33 -22 0 -29 -5 -29 -19 0 -11 -8
-22 -17 -24 -17 -4 -17 -5 0 -6 9 0 17 -7 17 -14 0 -24 64 -49 106 -41 57 10
74 22 74 50 0 36 -16 61 -50 79 -29 15 -69 21 -57 8z"/>
<path d="M3800 2340 c-11 -11 -20 -30 -20 -43 0 -19 -11 -29 -52 -48 -63 -29
-76 -52 -27 -47 33 3 34 2 37 -37 5 -64 48 -76 80 -21 21 35 91 76 133 76 25
0 56 35 39 45 -5 3 -23 -1 -39 -10 -33 -17 -91 -20 -91 -5 0 5 5 20 11 34 13
28 3 48 -32 67 -14 7 -24 4 -39 -11z"/>
<path d="M1458 2184 c-16 -8 -28 -23 -28 -33 0 -10 34 -49 77 -87 42 -38 81
-74 87 -79 22 -20 234 -212 320 -290 49 -44 101 -91 115 -104 14 -12 52 -44
83 -70 32 -25 58 -54 58 -63 0 -11 -5 -15 -14 -12 -13 5 -13 -24 0 -66 3 -8 4
-125 3 -260 -2 -135 -2 -335 -2 -445 3 -736 1 -675 22 -675 26 0 29 14 23 93
-3 47 -1 67 7 67 7 0 5 9 -6 26 -16 24 -16 27 0 36 21 11 22 37 2 44 -8 4 -15
17 -15 31 0 13 4 21 10 18 6 -3 10 0 11 7 1 38 2 376 1 783 -1 253 -1 469 -1
480 0 11 0 120 0 242 -1 200 -3 223 -19 232 -12 8 -14 13 -5 18 6 5 13 30 15
57 2 38 -1 51 -15 60 -14 9 -20 8 -27 -4 -14 -21 -12 -30 4 -30 12 0 12 -4 1
-27 -9 -20 -13 -85 -13 -227 0 -109 -4 -202 -9 -205 -5 -3 -12 -14 -16 -23 -7
-18 -37 -25 -37 -9 0 12 -67 81 -79 81 -5 0 -47 37 -93 83 -100 98 -213 197
-225 197 -4 0 -17 14 -28 30 -11 17 -36 42 -56 55 -19 14 -45 39 -58 55 -24
33 -51 37 -93 14z"/>
<path d="M2652 2100 c-7 -11 -12 -35 -12 -53 0 -42 -39 -119 -66 -132 -56 -28
-70 -67 -36 -98 33 -30 52 -22 52 21 0 43 14 62 46 62 47 0 43 -53 -6 -85 -39
-26 -40 -55 -2 -55 32 0 102 64 102 94 0 20 -32 79 -62 112 -17 19 -18 28 -9
85 6 34 9 64 8 65 -2 2 -8 -6 -15 -16z"/>
<path d="M3375 2079 c-4 -6 -4 -13 -1 -16 8 -8 36 5 36 17 0 13 -27 13 -35 -1z"/>
<path d="M1234 2020 c-22 -9 -75 -67 -119 -130 -21 -30 -24 -42 -16 -61 15
-38 103 -127 137 -139 29 -10 32 -15 37 -68 3 -31 2 -84 -2 -117 -5 -33 -5
-64 0 -69 28 -31 69 108 50 173 -8 25 -7 42 4 68 8 20 15 46 15 59 0 17 13 33
43 53 66 46 77 59 77 90 0 40 -49 91 -88 91 -43 0 -52 -17 -41 -72 12 -55 1
-84 -37 -98 -35 -14 -50 -12 -68 6 -27 26 -18 57 29 107 49 52 58 89 26 107
-22 11 -19 11 -47 0z"/>
<path d="M2490 2001 c0 -6 5 -13 10 -16 6 -3 10 1 10 9 0 9 -4 16 -10 16 -5 0
-10 -4 -10 -9z"/>
<path d="M3135 1996 c-11 -7 -49 -29 -85 -47 -36 -18 -76 -41 -89 -51 -13 -10
-30 -18 -38 -18 -7 0 -28 -16 -45 -36 -18 -20 -71 -62 -118 -93 -47 -31 -98
-66 -115 -77 -16 -12 -69 -47 -117 -77 -48 -31 -91 -64 -96 -74 -9 -16 0 -128
10 -139 5 -4 76 33 109 58 48 35 449 298 455 298 3 0 25 16 48 35 24 19 46 35
50 35 10 0 110 70 118 83 16 26 -23 117 -50 117 -10 0 -26 -6 -37 -14z"/>
<path d="M3770 1941 c0 -6 5 -13 10 -16 6 -3 10 1 10 9 0 9 -4 16 -10 16 -5 0
-10 -4 -10 -9z"/>
<path d="M948 1746 c-22 -16 -23 -26 -3 -26 8 0 19 9 25 20 12 23 3 25 -22 6z"/>
<path d="M1494 1736 c-8 -21 18 -70 39 -74 21 -4 21 8 3 53 -16 37 -33 45 -42
21z"/>
<path d="M1053 1683 c-15 -20 -45 -55 -65 -78 -43 -48 -45 -55 -20 -55 11 0
26 15 38 37 11 21 40 53 64 71 50 38 62 62 31 62 -11 0 -32 -16 -48 -37z"/>
<path d="M2995 1641 c-78 -36 -103 -93 -112 -251 l-6 -105 21 19 c11 10 24 32
28 50 7 33 21 56 35 56 16 0 41 -63 70 -173 16 -61 29 -111 29 -113 0 -2 7 -4
16 -4 13 0 15 6 9 33 -35 152 -17 211 31 100 34 -81 61 -127 75 -132 15 -5 10
19 -29 128 -29 78 -32 111 -11 111 4 0 14 -10 20 -22 7 -13 18 -29 26 -36 7
-7 25 -33 39 -58 25 -43 44 -57 44 -31 0 6 -23 52 -50 101 -53 94 -59 113 -35
122 14 6 43 -8 108 -51 21 -13 27 -14 26 -4 0 8 -32 40 -70 73 -50 42 -78 75
-99 117 -46 90 -85 107 -165 70z"/>
<path d="M1167 1643 c-4 -3 -7 -15 -7 -25 0 -28 34 -19 38 10 3 21 -16 31 -31
15z"/>
<path d="M1133 1548 c-9 -12 -43 -93 -43 -103 0 -3 7 -5 15 -5 16 0 54 72 55
103 0 20 -13 22 -27 5z"/>
</g>
</svg>
